<svg height="512" viewBox="0 0 128 128" width="512" xmlns="http://www.w3.org/2000/svg"><g><path d="m104.186 69.875c-.084-1.1-.214-2.213-.386-3.31a39.6 39.6 0 0 0 -35.195-33.546 40.289 40.289 0 0 0 -44.855 40.025 40.553 40.553 0 0 0 .863 8.327 17.392 17.392 0 0 0 10.68 12.619 17.647 17.647 0 0 0 16.658-1.978 20.754 20.754 0 0 1 12.078-3.986 20.152 20.152 0 0 1 9.115 2.21 21.4 21.4 0 0 0 21.769-1.388 20.713 20.713 0 0 0 9.273-18.973zm-11.223 16.066a17.938 17.938 0 0 1 -18.248 1.167 23.623 23.623 0 0 0 -10.686-2.582 24.511 24.511 0 0 0 -14.089 4.622 14.155 14.155 0 0 1 -13.363 1.586 13.721 13.721 0 0 1 -8.539-10.084 36.84 36.84 0 0 1 11.462-35.011 36.353 36.353 0 0 1 24.478-9.376 38.732 38.732 0 0 1 4.244.235 36.134 36.134 0 0 1 32.12 30.608c.158 1.006.277 2.028.354 3.036a17.25 17.25 0 0 1 -7.733 15.799z"/><path d="m86.084 67.221a8.329 8.329 0 1 0 8.329 8.328 8.338 8.338 0 0 0 -8.329-8.328zm0 13.157a4.829 4.829 0 1 1 4.829-4.829 4.834 4.834 0 0 1 -4.829 4.829z"/><path d="m89.13 54.927a8.329 8.329 0 1 0 -8.33 8.329 8.338 8.338 0 0 0 8.33-8.329zm-13.157 0a4.829 4.829 0 1 1 4.827 4.829 4.834 4.834 0 0 1 -4.827-4.829z"/><path d="m40.853 71.388a8.329 8.329 0 1 0 8.328 8.328 8.338 8.338 0 0 0 -8.328-8.328zm0 13.157a4.829 4.829 0 1 1 4.828-4.829 4.834 4.834 0 0 1 -4.828 4.829z"/><path d="m43.034 51.225a8.329 8.329 0 1 0 8.328 8.328 8.338 8.338 0 0 0 -8.328-8.328zm0 13.157a4.829 4.829 0 1 1 4.828-4.829 4.834 4.834 0 0 1 -4.828 4.829z"/><path d="m68.708 47.43a8.329 8.329 0 1 0 -8.329 8.329 8.339 8.339 0 0 0 8.329-8.329zm-13.158 0a4.829 4.829 0 1 1 4.829 4.829 4.835 4.835 0 0 1 -4.829-4.829z"/><path d="m63.709 63.083a6.459 6.459 0 1 0 6.458 6.459 6.466 6.466 0 0 0 -6.458-6.459zm0 9.418a2.959 2.959 0 1 1 2.958-2.959 2.962 2.962 0 0 1 -2.958 2.958z"/></g></svg>