<svg height="512" viewBox="0 0 128 128" width="512" xmlns="http://www.w3.org/2000/svg"><path d="m102.5 89.42h-34.954l24.334-29.357a5.95 5.95 0 0 0 -.783-8.379l-18.379-15.235a5.95 5.95 0 0 0 -8.379.783l-28.219 34.044a5.951 5.951 0 0 0 .783 8.38l11.779 9.764h-23.182a1.75 1.75 0 0 0 0 3.5h77a1.75 1.75 0 0 0 0-3.5zm-35.467-49.953a2.45 2.45 0 0 1 3.451-.322l18.379 15.234a2.45 2.45 0 0 1 .323 3.45l-12.993 15.671-22.152-18.358zm-27.9 37.494a2.45 2.45 0 0 1 -.323-3.45l12.997-15.675 22.152 18.364-10.959 13.22h-8.833z"/></svg>