<svg height="512" viewBox="0 0 128 128" width="512" xmlns="http://www.w3.org/2000/svg"><path d="m98.031 39.631-20.756-15.516a1.75 1.75 0 0 0 -2.393.282l-39.058 46.95a1.75 1.75 0 0 0 .3 2.52l.345.258-1.269 1.7a7.074 7.074 0 0 0 -.545 7.6l.611 1.123a9.612 9.612 0 0 1 -.742 10.326l-4.905 6.562a1.749 1.749 0 0 0 1.4 2.8h7.7a1.747 1.747 0 0 0 1.4-.7l2.146-2.871a9.622 9.622 0 0 1 9.694-3.634l1.251.269a7.068 7.068 0 0 0 7.132-2.673l1.269-1.7.346.259a1.756 1.756 0 0 0 1.048.348 1.728 1.728 0 0 0 .295-.025 1.753 1.753 0 0 0 1.159-.751l33.978-50.752a1.748 1.748 0 0 0 -.406-2.375zm-21.52-11.718 18.089 13.526-1.88 2.809-18.371-13.737zm12.973 21.175-18.86-14.1 1.484-1.783 18.667 13.955zm-51.64 51.645h-3.334l1.769-2.366 2.138 1.6zm19.7-8.207a3.567 3.567 0 0 1 -3.594 1.347l-1.25-.273a13.125 13.125 0 0 0 -12.086 3.633l-2.335-1.746a13.129 13.129 0 0 0 .062-12.621l-.611-1.123a3.562 3.562 0 0 1 .27-3.824l1.27-1.7 19.54 14.608zm5.037-3.251-22.616-16.905-.27-.2 28.688-34.487 19.151 14.317z"/></svg>