<svg id="Capa_1" enable-background="new 0 0 512.047 512.047" height="512" viewBox="0 0 512.047 512.047" width="512" xmlns="http://www.w3.org/2000/svg"><g><path d="m169.413 321.004c-22.557-3.187-46.298 3.872-63.61 21.184-40.394 40.395-76.673 72.902-105.803 98.899l24.52 8.211c32.479 10.878 81.602 21.186 118.699 20.724 32.384-.398 54.198-7.315 68.65-21.768 17.313-17.313 24.371-41.053 21.184-63.611l278.994-278.993-63.64-63.64zm21.243 106.037c-8.445 8.445-24.083 12.691-47.807 12.983-29.052.352-61.669-6.373-83.551-11.957 17.145-15.759 42.918-39.866 67.718-64.666 17.545-17.545 46.093-17.546 63.64 0 17.545 17.546 17.545 46.095 0 63.64zm21.213-84.853c-3.631-3.632-7.547-6.81-11.674-9.539l58.494-58.494 21.213 21.213-58.494 58.494c-2.73-4.127-5.908-8.042-9.539-11.674zm89.246-68.033-21.213-21.213 168.505-168.506 21.213 21.213z"/></g></svg>