<svg height="512" viewBox="0 0 128 128" width="512" xmlns="http://www.w3.org/2000/svg"><path d="m102.7 40.773-15.473-15.473a3.057 3.057 0 0 0 -4.227 0l-5.313 5.313-34.756 34.759-4.039 4.039h-.005l-5.311 5.31a2.947 2.947 0 0 0 -.5 3.532l-9.046 23.455a1.75 1.75 0 0 0 2.262 2.262l23.443-9.034a2.948 2.948 0 0 0 3.529-.5l5.315-5.316 34.756-34.758 4.04-4.039v-.005-.005l5.325-5.313a2.991 2.991 0 0 0 0-4.227zm-10.6 9.875-14.748-14.748 1.572-1.572 14.747 14.748zm-30.711 30.712-14.748-14.748 28.236-28.237 14.748 14.748zm-4.047 4.046-14.742-14.748 1.571-1.571 14.743 14.747zm-21.624-4.294 11.17 11.17-18.174 7zm15.434 10.488-14.752-14.751 3.716-3.716 14.752 14.748zm44.994-45-14.746-14.746 3.715-3.715 14.747 14.747z"/></svg>